# xmcd CD database file
#
# Track frame offsets:
#	150
#	12357
#	22557
#	31530
#	42702
#	51565
#	63375
#	73485
#	80990
#	91550
#	99215
#	108002
#	118780
#	127532
#
# Disc length: 1832 seconds
#
# Revision: 0
# Processed by: cddbd v1.4PL0 Copyright (c) Steve Scherf et al.
# Submitted via: CDex 1.40Beta9
#
DISCID=a907260e
DTITLE=Jim Reeves Vol 1 - Soft And Tenderly
DYEAR=1900
DGENRE=Country
TTITLE0=Four Walls
TTITLE1=Anna Marie
TTITLE2=I'd Like To Be
TTITLE3=Am I Losing You?
TTITLE4=According To My Heart
TTITLE5=Mexican Joe
TTITLE6=He'll Have To Go
TTITLE7=Blue Boy
TTITLE8=Peace In The Valley
TTITLE9=In A Mansion Stands My Love
TTITLE10=Old Time Religion
TTITLE11=I Missed Me
TTITLE12=Yonder Gomes A Sucker
TTITLE13=Softly And Tenderly
EXTD=ID3G: 2
EXTT0=
EXTT1=
EXTT2=
EXTT3=
EXTT4=
EXTT5=
EXTT6=
EXTT7=
EXTT8=
EXTT9=
EXTT10=
EXTT11=
EXTT12=
EXTT13=
PLAYORDER=
